<?xml version="1.0" encoding="UTF-8" standalone="no"?>
<!-- Uploaded to: SVG Repo, www.svgrepo.com, Generator: SVG Repo Mixer Tools -->

<svg
   width="800px"
   height="800px"
   viewBox="-8.86 0 89.724 89.724"
   version="1.1"
   id="svg6"
   sodipodi:docname="scheduler-svgrepo-com.svg"
   inkscape:version="1.2.2 (b0a8486541, 2022-12-01)"
   xmlns:inkscape="http://www.inkscape.org/namespaces/inkscape"
   xmlns:sodipodi="http://sodipodi.sourceforge.net/DTD/sodipodi-0.dtd"
   xmlns="http://www.w3.org/2000/svg"
   xmlns:svg="http://www.w3.org/2000/svg"
   xmlns:rdf="http://www.w3.org/1999/02/22-rdf-syntax-ns#"
   xmlns:cc="http://creativecommons.org/ns#"
   xmlns:dc="http://purl.org/dc/elements/1.1/">
  <defs
     id="defs10" />
  <sodipodi:namedview
     id="namedview8"
     pagecolor="#ffffff"
     bordercolor="#000000"
     borderopacity="0.25"
     inkscape:showpageshadow="2"
     inkscape:pageopacity="0.0"
     inkscape:pagecheckerboard="0"
     inkscape:deskcolor="#d1d1d1"
     showgrid="false"
     inkscape:zoom="0.295"
     inkscape:cx="164.40678"
     inkscape:cy="400"
     inkscape:window-width="1366"
     inkscape:window-height="691"
     inkscape:window-x="0"
     inkscape:window-y="0"
     inkscape:window-maximized="1"
     inkscape:current-layer="svg6" />
  <metadata
     id="metadata2">
    <rdf:RDF>
      <cc:Work>
        <dc:subject>
                    Compute
                </dc:subject>
        <dc:identifier>
                    scheduler
                </dc:identifier>
        <dc:title>
                    Scheduler
                </dc:title>
        <dc:format>
                    image/svg+xml
                </dc:format>
        <dc:publisher>
                    Amido Limited
                </dc:publisher>
        <dc:creator>
                    Richard Slater
                </dc:creator>
        <dc:type
           rdf:resource="http://purl.org/dc/dcmitype/StillImage" />
      </cc:Work>
    </rdf:RDF>
  </metadata>
  <path
     d="M 38.913784,1.5212634 C 17.204387,1.4830057 -2.6053037,17.418395 -5.9831577,35.785619 -9.6465625,55.705357 6.3754471,75.090271 29.637553,79.731732 c 6.959993,1.388781 10.389375,1.285861 10.389375,1.285861 0,0 0.09278,5.61876 0.09278,7.18568 1.019791,-0.788454 13.728817,-10.967619 13.728817,-10.967619 0,0 -7.654389,-6.031439 -13.728817,-10.816337 0.113978,2.701132 0,7.185679 0,7.185679 0,0 -7.957665,-9.7e-5 -15.491298,-3.252467 C -12.458361,54.341685 -3.6653084,10.250483 39.284843,4.3955313 44.637806,3.6658251 59.056681,5.5482933 63.681325,6.8159731 60.880582,5.2457103 52.788867,1.5457057 38.913796,1.5212634 Z m 5.844018,8.1689873 c -18.809152,0 -34.043748,12.4979903 -34.043748,27.8350563 0,15.337074 15.234596,27.75943 34.043748,27.75943 18.809165,0 34.043761,-12.422356 34.043761,-27.75943 0,-15.337066 -15.234596,-27.8350563 -34.043761,-27.8350563 z m -0.185516,1.8909683 c 1.863046,0 3.339442,1.20385 3.339442,2.722996 0,1.519137 -1.476396,2.798632 -3.339442,2.798632 -1.86306,0 -3.432214,-1.279495 -3.432214,-2.798632 0,-1.519146 1.569154,-2.722996 3.432214,-2.722996 z m 0.09277,9.152286 c 3.371942,0 6.029548,2.051304 6.029548,4.613966 v 10.059957 l 10.760423,8.017706 c 2.343488,1.750103 2.24906,4.771266 -0.185529,6.807489 -2.434671,2.036291 -6.283394,2.279546 -8.626883,0.529472 L 40.861802,41.988 c -0.09644,-0.07217 -0.190127,-0.150673 -0.278289,-0.226918 -1.26391,-0.846431 -2.04077,-2.092567 -2.04077,-3.479386 V 25.347471 c 0,-2.562662 2.75039,-4.613966 6.122308,-4.613966 z M 15.444937,35.785619 c 1.863047,0 3.339443,1.279494 3.339443,2.798631 0,1.519147 -1.476396,2.722996 -3.339443,2.722996 -1.863047,0 -3.339443,-1.203849 -3.339443,-2.722996 0,-1.519137 1.476396,-2.798631 3.339443,-2.798631 z m 58.718519,0.07564 c 1.863047,0 3.339442,1.203859 3.339442,2.722996 0,1.519147 -1.476395,2.722996 -3.339442,2.722996 -1.86306,0 -3.339443,-1.203849 -3.339443,-2.722996 0,-1.519137 1.476383,-2.722996 3.339443,-2.722996 z M 45.128859,58.552891 c 1.863059,0 3.432213,1.279495 3.432213,2.798632 0,1.519146 -1.569154,2.722996 -3.432213,2.722996 -1.863048,0 -3.339442,-1.20385 -3.339442,-2.722996 0,-1.519137 1.476394,-2.798632 3.339442,-2.798632 z"
     fill="#00bcf2"
     id="path4"
     style="stroke-width:1.06988" />
</svg>
