<?xml version="1.0" encoding="iso-8859-1"?>
<!-- Generator: Adobe Illustrator 19.0.0, SVG Export Plug-In . SVG Version: 6.00 Build 0)  -->
<svg version="1.1" id="Layer_1" xmlns="http://www.w3.org/2000/svg" xmlns:xlink="http://www.w3.org/1999/xlink" x="0px" y="0px"
	 viewBox="0 0 512 512" style="enable-background:new 0 0 512 512;" xml:space="preserve">
<path style="fill:#A9A8AE;" d="M319.381,310.303h37.468v-38.788c0-21.388,17.4-38.788,38.788-38.788s38.788,17.4,38.788,38.788
	v38.788h46.545v-38.788c0-47.053-38.281-85.333-85.333-85.333s-85.333,38.281-85.333,85.333v27.988v10.8H319.381z"/>
<path style="fill:#FFB655;" d="M356.848,310.303h-37.468h-9.078h-7.758c-4.096,0-7.938,1.064-11.28,2.923
	c-7.148,3.972-11.993,11.591-11.993,20.35v1.137v61.699v23.273v23.273v45.77c0,12.853,10.42,23.273,23.273,23.273h186.182
	C501.58,512,512,501.58,512,488.727V333.576c0-12.853-10.42-23.273-23.273-23.273h-7.758h-46.545H356.848z"/>
<path style="fill:#EFC27B;" d="M81.067,97.358c0,53.684,43.674,97.358,97.358,97.358s97.358-43.674,97.358-97.358
	S232.108,0,178.424,0S81.067,43.674,81.067,97.358z"/>
<path style="fill:#A4E276;" d="M23.273,442.958h256v-23.273v-23.273v-61.699v-1.137c0-8.758,4.844-16.379,11.993-20.35
	c3.342-1.857,7.185-2.923,11.28-2.923h7.758v-10.8c-33.565-36.856-81.195-58.241-131.879-58.242C80.041,241.261,0,321.302,0,419.685
	C0,432.538,10.42,442.958,23.273,442.958z"/>
<path style="fill:#ECB45C;" d="M81.067,97.358c0,53.684,43.674,97.358,97.358,97.358V0C124.74,0,81.067,43.674,81.067,97.358z"/>
<path style="fill:#64C37D;" d="M0,419.685c0,12.853,10.42,23.273,23.273,23.273h155.152V241.261C80.041,241.261,0,321.302,0,419.685
	z"/>
<path style="fill:#FF9811;" d="M356.848,310.303h-37.468h-9.078h-7.758c-4.096,0-7.938,1.066-11.281,2.923
	c-7.148,3.97-11.992,11.591-11.992,20.35v1.137v61.699v23.273v23.273v45.77c0,12.853,10.42,23.273,23.273,23.273h93.091V310.303
	H356.848z"/>
<g>
</g>
<g>
</g>
<g>
</g>
<g>
</g>
<g>
</g>
<g>
</g>
<g>
</g>
<g>
</g>
<g>
</g>
<g>
</g>
<g>
</g>
<g>
</g>
<g>
</g>
<g>
</g>
<g>
</g>
</svg>
